<svg xmlns="http://www.w3.org/2000/svg" width="1473.004" height="2092.26" viewBox="0 0 1380.941 1961.494"><defs><clipPath id="b"><text y="1190.514" x="-814.024" style="line-height:125%" font-weight="400" font-size="1400.973" font-family="sans-serif" letter-spacing="0" word-spacing="0"><tspan style="-inkscape-font-specification:'Trajan Pro'" y="1190.514" x="-814.024" font-family="Trajan Pro">T</tspan></text></clipPath><clipPath id="c"><text y="1108.478" x="-128.976" style="line-height:125%" font-weight="400" font-size="977.383" font-family="sans-serif" letter-spacing="0" word-spacing="0"><tspan style="-inkscape-font-specification:'Trajan Pro'" y="1108.478" x="-128.976" font-family="Trajan Pro">A</tspan></text></clipPath><filter id="a" x="-.41" y="-.1" width="1.75" height="1.29" color-interpolation-filters="sRGB"><feFlood flood-opacity="1" flood-color="#5E5E5E" result="flood"/><feComposite in="flood" in2="SourceGraphic" operator="in" result="composite1"/><feGaussianBlur in="composite1" stdDeviation="65.3" result="blur"/><feOffset result="offset"/><feComposite in="SourceGraphic" in2="offset" result="fbSourceGraphic"/><feColorMatrix result="fbSourceGraphicAlpha" in="fbSourceGraphic" values="0 0 0 -1 0 0 0 0 -1 0 0 0 0 -1 0 0 0 0 1 0"/><feColorMatrix values="0.21 0.72 0.072 0 0 0.21 0.72 0.072 0 0 0.21 0.72 0.072 0 0 0 0 0 1 0" in="fbSourceGraphic"/></filter></defs><path d="M-470.983-490.05h789.11v1520.538h-789.11z" opacity=".333" fill="#115373" filter="url(#a)" transform="translate(794.518 642.103)"/><g transform="translate(794.518 642.103)" filter="url(#a)" opacity=".333"><g style="line-height:125%"><path d="M-113.844 88.825c45.475 0 90.95-10.106 127.163-35.37C71.426 12.19 84.9-51.812 84.9-86.34c0-67.371-23.58-119.584-122.953-197.903l-23.58-18.527c-80.845-63.16-102.74-93.477-102.74-141.48 0-61.475 45.475-97.687 103.583-97.687 77.476 0 100.214 35.37 105.267 44.633 5.053 9.264 10.106 32.001 10.948 42.107.842 6.737 1.684 10.948 6.737 10.948 4.21 0 5.895-5.895 5.895-19.37 0-57.265 3.368-85.055 3.368-89.266 0-4.21-1.684-5.895-8.421-5.895-6.737 0-13.474-.842-29.475-4.21-21.053-5.053-45.475-8.422-78.319-8.422-106.951 0-174.323 61.476-174.323 151.585 0 57.265 20.212 109.478 109.479 182.744l37.896 31.16C.687-146.133 25.109-112.447 25.109-54.34c0 53.897-39.58 112.005-120.426 112.005-56.423 0-112.005-23.58-124.637-85.898-2.526-11.79-2.526-23.58-2.526-31.16 0-6.737-.842-9.263-5.895-9.263-4.21 0-5.895 4.21-6.737 13.474-.842 13.474-4.21 47.16-4.21 89.267 0 22.738.841 26.106 12.631 32.001 34.528 16.843 73.266 22.738 112.847 22.738z" style="-inkscape-font-specification:'Trajan Pro'" font-family="Trajan Pro" font-weight="400" font-size="842.139" letter-spacing="0" word-spacing="0"/></g><g style="line-height:125%"><path d="M427.167 284.023c41.143 0 90-4.5 115.715-14.786 11.572-5.143 12.858-6.428 16.715-18.643 6.429-21.857 14.143-77.787 14.143-82.287 0-5.143-1.286-9.643-4.5-9.643-3.857 0-5.143 2.572-6.429 9.643-1.928 11.572-10.286 39.858-23.786 54.001-25.714 26.357-63.643 32.143-111.858 32.143-137.574 0-232.075-112.501-232.075-235.288 0-65.573 10.929-122.788 57.858-167.788 22.5-21.858 62.358-46.93 147.86-46.93 56.571 0 106.072 17.358 128.572 36.644 16.715 14.143 27 40.5 27 65.572 0 9 .644 13.5 5.144 13.5 3.857 0 5.142-3.857 5.785-13.5.643-9.643.643-45 1.929-66.215 1.286-23.143 3.214-30.858 3.214-36 0-3.858-1.285-6.43-8.357-7.072-20.572-1.286-41.143-5.143-65.572-9.643-31.5-5.786-67.501-7.714-93.216-7.714-99.001 0-157.502 30.214-196.074 68.786-57.215 57.215-72 132.43-72 175.502 0 61.073 15.428 134.36 77.786 190.289 50.786 45.643 115.716 69.43 212.146 69.43z" style="-inkscape-font-specification:'Trajan Pro'" font-size="642.866" font-family="Trajan Pro" font-weight="400" letter-spacing="0" word-spacing="0"/></g><g style="line-height:125%"><path d="M-266.244 195.823l176.523 2.802c134.493 2.802 168.117 35.025 172.32 77.054l1.4 15.41c1.401 19.614 4.203 23.817 11.208 23.817 5.604 0 9.807-5.604 9.807-18.213 0-15.41 4.203-112.077 4.203-154.107 0-8.405 0-16.811-7.005-16.811-5.604 0-18.213 4.203-39.227 7.005-22.416 4.203-54.638 7.004-99.47 7.004h-525.364c-16.812 0-70.049-2.801-110.677-7.004-37.826-2.802-51.836-16.812-61.643-16.812-5.604 0-11.208 18.213-14.01 26.618C-750.98 153.794-779 274.278-779 288.288c0 8.406 2.802 12.608 7.005 12.608 5.604 0 9.807-2.802 14.01-14.01 4.202-9.806 8.405-19.613 23.816-43.43 22.416-33.623 56.039-43.43 142.9-44.83l207.343-2.803v592.612c0 134.494 0 245.17-7.005 304.011-5.603 40.629-12.608 71.45-40.628 77.054-12.608 2.802-29.42 5.604-42.029 5.604-8.406 0-11.208 4.203-11.208 8.406 0 8.406 7.005 11.207 22.416 11.207 42.03 0 130.29-4.203 137.295-4.203 7.005 0 95.266 4.203 172.32 4.203 15.41 0 22.416-4.203 22.416-11.207 0-4.203-2.802-8.406-11.208-8.406-12.609 0-43.43-2.802-63.044-5.604-42.03-5.604-50.435-36.425-54.638-77.054-7.005-58.84-7.005-169.517-7.005-304.01V195.822z" style="-inkscape-font-specification:'Trajan Pro'" font-family="Trajan Pro" font-weight="400" font-size="1400.973" letter-spacing="0" word-spacing="0"/></g><g style="line-height:125%"><path d="M-36.125 1003.898c-17.593 48.869-37.14 86.01-82.1 91.874-7.82.977-21.503 1.955-28.344 1.955-4.887 0-8.797 1.954-8.797 5.864 0 5.864 5.865 7.819 18.57 7.819 45.938 0 99.694-2.932 110.445-2.932 10.751 0 52.778 2.932 76.236 2.932 8.796 0 14.66-1.955 14.66-7.82 0-3.909-2.932-5.863-9.773-5.863h-9.774c-16.616 0-37.14-8.797-37.14-28.345 0-17.592 4.886-41.05 13.683-65.484L80.184 830.9c1.954-4.887 4.886-7.819 9.773-7.819h210.138c4.887 0 6.841 1.955 8.796 5.864l90.897 240.436c5.864 15.639 0 24.435-5.865 26.39-3.91.977-6.841 2.932-6.841 6.842 0 5.864 10.751 5.864 29.321 6.841 67.44 1.955 138.789 1.955 153.45 1.955 10.75 0 19.547-1.955 19.547-7.82 0-4.886-3.91-5.863-9.774-5.863-9.774 0-24.434-.978-39.095-5.865-20.525-5.864-48.87-21.502-84.055-108.49-59.62-148.561-213.07-552.22-227.73-589.361-11.729-30.299-15.638-35.186-21.503-35.186-5.864 0-9.774 5.864-21.502 38.118l-221.866 606.955zm136.834-216.002c-2.933 0-4.887-1.955-2.933-6.841l86.01-263.894c4.887-14.66 9.774-14.66 14.66 0l92.852 263.894c.978 3.91.978 6.841-3.91 6.841h-186.68z" style="-inkscape-font-specification:'Trajan Pro'" font-family="Trajan Pro" font-weight="400" font-size="977.383" letter-spacing="0" word-spacing="0"/></g><path clip-path="url(#b)" d="M-470.983-490.05h789.11v1520.538h-789.11z" fill="#fff"/><path clip-path="url(#c)" d="M-470.983-490.05h789.11v1520.538h-789.11z" fill="#fff"/></g></svg>