<svg xmlns="http://www.w3.org/2000/svg" width="1683.434" height="2059.822" viewBox="0 0 1578.219 1931.083"><defs><clipPath id="b"><text y="1190.514" x="-814.024" style="line-height:125%" font-weight="400" font-size="1400.973" font-family="sans-serif" letter-spacing="0" word-spacing="0"><tspan style="-inkscape-font-specification:'Trajan Pro'" y="1190.514" x="-814.024" font-family="Trajan Pro">T</tspan></text></clipPath><clipPath id="c"><text y="1108.478" x="-128.976" style="line-height:125%" font-weight="400" font-size="977.383" font-family="sans-serif" letter-spacing="0" word-spacing="0"><tspan style="-inkscape-font-specification:'Trajan Pro'" y="1108.478" x="-128.976" font-family="Trajan Pro">A</tspan></text></clipPath><filter id="a" x="-.5" y="-.1" width="2" height="1.27" color-interpolation-filters="sRGB"><feFlood flood-opacity="1" flood-color="#5E5E5E" result="flood"/><feComposite in="flood" in2="SourceGraphic" operator="in" result="composite1"/><feGaussianBlur in="composite1" stdDeviation="65.3" result="blur"/><feOffset result="offset"/><feComposite in="SourceGraphic" in2="offset" result="composite2"/></filter></defs><path fill="#115373" filter="url(#a)" d="M-470.983-490.05h789.109v1520.538h-789.109z" transform="translate(865.538 642.103)"/><g style="line-height:125%"><path d="M751.694 730.928c45.475 0 90.95-10.105 127.163-35.37 58.107-41.264 71.582-105.267 71.582-139.795 0-67.37-23.58-119.583-122.953-197.902l-23.58-18.527c-80.845-63.16-102.74-93.478-102.74-141.48 0-61.476 45.475-97.688 103.583-97.688 77.476 0 100.214 35.37 105.267 44.634 5.053 9.263 10.106 32 10.948 42.107.842 6.737 1.684 10.947 6.737 10.947 4.21 0 5.895-5.895 5.895-19.369 0-57.265 3.368-85.056 3.368-89.267 0-4.21-1.684-5.895-8.421-5.895-6.737 0-13.474-.842-29.475-4.21-21.053-5.053-45.475-8.422-78.319-8.422-106.951 0-174.323 61.477-174.323 151.585 0 57.266 20.212 109.478 109.478 182.745l37.897 31.159c72.424 59.792 96.846 93.477 96.846 151.585 0 53.897-39.58 112.004-120.426 112.004-56.423 0-112.005-23.58-124.637-85.898-2.526-11.79-2.526-23.58-2.526-31.16 0-6.736-.842-9.263-5.895-9.263-4.21 0-5.895 4.211-6.737 13.475-.842 13.474-4.21 47.16-4.21 89.266 0 22.738.841 26.107 12.631 32.002 34.528 16.842 73.266 22.737 112.847 22.737z" style="-inkscape-font-specification:'Trajan Pro'" font-family="Trajan Pro" font-weight="400" font-size="842.139" letter-spacing="0" word-spacing="0"/></g><g style="line-height:125%"><path d="M1292.705 926.127c41.143 0 90-4.5 115.715-14.786 11.572-5.143 12.858-6.429 16.715-18.643 6.429-21.858 14.143-77.787 14.143-82.287 0-5.143-1.286-9.643-4.5-9.643-3.857 0-5.143 2.571-6.429 9.643-1.928 11.571-10.286 39.857-23.786 54-25.714 26.358-63.643 32.144-111.858 32.144-137.574 0-232.075-112.502-232.075-235.289 0-65.572 10.929-122.787 57.858-167.788 22.5-21.857 62.358-46.93 147.86-46.93 56.571 0 106.072 17.358 128.572 36.644 16.715 14.143 27 40.5 27 65.572 0 9 .643 13.5 5.143 13.5 3.858 0 5.143-3.857 5.786-13.5.643-9.642.643-45 1.929-66.215 1.286-23.143 3.214-30.857 3.214-36 0-3.857-1.286-6.429-8.357-7.072-20.572-1.285-41.143-5.143-65.572-9.643-31.5-5.785-67.501-7.714-93.216-7.714-99.001 0-157.502 30.215-196.074 68.787-57.215 57.215-72 132.43-72 175.502 0 61.072 15.428 134.359 77.786 190.288 50.786 45.644 115.716 69.43 212.146 69.43z" style="-inkscape-font-specification:'Trajan Pro'" font-size="642.866" font-family="Trajan Pro" font-weight="400" letter-spacing="0" word-spacing="0"/></g><g style="line-height:125%"><path d="M599.294 837.927l176.523 2.802c134.493 2.802 168.117 35.024 172.32 77.053l1.4 15.411c1.401 19.614 4.203 23.817 11.208 23.817 5.604 0 9.807-5.604 9.807-18.213 0-15.41 4.203-112.078 4.203-154.107 0-8.406 0-16.812-7.005-16.812-5.604 0-18.213 4.203-39.227 7.005-22.416 4.203-54.638 7.005-99.47 7.005H303.69c-16.812 0-70.049-2.802-110.677-7.005-37.826-2.802-51.836-16.812-61.643-16.812-5.604 0-11.208 18.213-14.01 26.619-2.802 11.208-30.821 131.691-30.821 145.701 0 8.406 2.802 12.609 7.005 12.609 5.604 0 9.806-2.802 14.01-14.01 4.202-9.807 8.405-19.613 23.816-43.43 22.416-33.623 56.039-43.43 142.9-44.831l207.343-2.802v592.612c0 134.493 0 245.17-7.005 304.01-5.603 40.63-12.608 71.45-40.628 77.054-12.609 2.802-29.42 5.604-42.029 5.604-8.406 0-11.208 4.203-11.208 8.406 0 8.406 7.005 11.208 22.416 11.208 42.029 0 130.29-4.203 137.295-4.203 7.005 0 95.266 4.203 172.32 4.203 15.41 0 22.415-4.203 22.415-11.208 0-4.203-2.801-8.406-11.207-8.406-12.61 0-43.43-2.802-63.044-5.604-42.03-5.604-50.435-36.425-54.638-77.053-7.005-58.841-7.005-169.518-7.005-304.011V837.927z" style="-inkscape-font-specification:'Trajan Pro'" font-family="Trajan Pro" font-weight="400" font-size="1400.973" letter-spacing="0" word-spacing="0"/></g><g style="line-height:125%"><path d="M829.413 1646.001c-17.593 48.87-37.14 86.01-82.1 91.874-7.82.978-21.503 1.955-28.344 1.955-4.887 0-8.797 1.955-8.797 5.864 0 5.865 5.865 7.82 18.57 7.82 45.937 0 99.694-2.933 110.445-2.933 10.751 0 52.778 2.932 76.236 2.932 8.796 0 14.66-1.954 14.66-7.819 0-3.91-2.932-5.864-9.773-5.864h-9.774c-16.616 0-37.14-8.796-37.14-28.344 0-17.593 4.886-41.05 13.683-65.485l58.642-172.996c1.955-4.887 4.887-7.82 9.774-7.82h210.138c4.887 0 6.841 1.955 8.796 5.865l90.897 240.436c5.864 15.638 0 24.434-5.865 26.39-3.91.977-6.841 2.931-6.841 6.841 0 5.864 10.75 5.864 29.321 6.842 67.44 1.954 138.789 1.954 153.45 1.954 10.75 0 19.547-1.954 19.547-7.819 0-4.887-3.91-5.864-9.774-5.864-9.774 0-24.434-.977-39.095-5.864-20.525-5.865-48.87-21.503-84.055-108.49-59.62-148.562-213.07-552.221-227.73-589.362-11.729-30.298-15.638-35.185-21.503-35.185-5.864 0-9.774 5.864-21.502 38.118L829.413 1646zM966.247 1430c-2.933 0-4.887-1.955-2.933-6.842l86.01-263.893c4.887-14.661 9.774-14.661 14.66 0l92.852 263.893c.978 3.91.978 6.842-3.91 6.842h-186.68z" style="-inkscape-font-specification:'Trajan Pro'" font-family="Trajan Pro" font-weight="400" font-size="977.383" letter-spacing="0" word-spacing="0"/></g><path clip-path="url(#b)" d="M-470.983-490.05h789.11v1520.538h-789.11z" fill="#fff" transform="translate(865.538 642.103)"/><path clip-path="url(#c)" d="M-470.983-490.05h789.11v1520.538h-789.11z" fill="#fff" transform="translate(865.538 642.103)"/></svg>
