<svg xmlns="http://www.w3.org/2000/svg" width="12469.431" height="1959.276" viewBox="0 0 11690.091 1836.821"><defs><clipPath id="b"><path style="line-height:125%;-inkscape-font-specification:'Trajan Pro'" d="M-89.802 195.823l176.522 2.802c134.494 2.802 168.117 35.025 172.32 77.054l1.401 15.41c1.401 19.614 4.203 23.817 11.208 23.817 5.604 0 9.807-5.604 9.807-18.213 0-15.41 4.203-112.077 4.203-154.107 0-8.405 0-16.811-7.005-16.811-5.604 0-18.213 4.203-39.228 7.005-22.415 4.203-54.638 7.004-99.469 7.004h-525.365c-16.811 0-70.048-2.801-110.677-7.004-37.826-2.802-51.836-16.812-61.642-16.812-5.604 0-11.208 18.213-14.01 26.618-2.802 11.208-30.822 131.692-30.822 145.702 0 8.406 2.802 12.608 7.005 12.608 5.604 0 9.807-2.802 14.01-14.01 4.203-9.806 8.406-19.613 23.817-43.43 22.415-33.623 56.039-43.43 142.899-44.83l207.344-2.803v592.612c0 134.494 0 245.17-7.005 304.011-5.604 40.629-12.609 71.45-40.628 77.054-12.609 2.802-29.42 5.604-42.03 5.604-8.405 0-11.207 4.203-11.207 8.406 0 8.406 7.005 11.207 22.415 11.207 42.03 0 130.29-4.203 137.296-4.203 7.005 0 95.266 4.203 172.32 4.203 15.41 0 22.415-4.203 22.415-11.207 0-4.203-2.802-8.406-11.208-8.406-12.608 0-43.43-2.802-63.043-5.604-42.03-5.604-50.436-36.425-54.638-77.054-7.005-58.84-7.005-169.517-7.005-304.01V195.822z" font-weight="400" font-family="Trajan Pro" letter-spacing="0" word-spacing="0" fill="#fff"/></clipPath><clipPath id="c"><path d="M-294.542-490.05h789.11v1520.538h-789.11z" fill="#fff" stroke-width="5.891"/></clipPath><filter id="a" y="-.1" height="1.2" width="1.71" x="-.39" color-interpolation-filters="sRGB"><feFlood flood-opacity="1" flood-color="#5E5E5E" result="flood"/><feComposite in="flood" in2="SourceGraphic" operator="in" result="composite1"/><feGaussianBlur in="composite1" stdDeviation="65" result="blur"/><feOffset result="offset"/><feComposite in="SourceGraphic" in2="offset" result="composite2"/></filter></defs><g font-weight="900" font-family="Lovelo" letter-spacing="0" word-spacing="0"><g style="line-height:125%" font-size="1199.054"><path d="M1690.091 955.745c116.308 59.952 223.024 65.948 270.986 62.35 160.674-8.393 258.996-117.507 258.996-260.194 0-136.693-115.11-213.432-248.204-262.593-49.161-16.787-91.128-38.37-95.924-86.332-3.598-47.962 23.98-92.327 85.132-95.924 26.38-1.2 80.337-2.399 175.062 35.971l21.583-165.47c-110.313-38.369-169.066-38.369-213.431-35.97-142.688 7.193-242.21 117.506-242.21 261.393 0 143.886 119.906 212.232 254.2 261.394 47.962 16.786 85.133 38.37 88.73 87.53 4.796 46.764-38.37 82.735-88.73 86.333-39.569 3.597-146.284 1.199-244.607-68.347l-21.583 179.859z" style="-inkscape-font-specification:'Lovelo Heavy'"/><path d="M2776.79 1022.892c589.935 0 589.935-883.703 0-883.703-589.934 0-589.934 883.703 0 883.703zm0-177.46c-342.93 0-342.93-529.982 0-529.982s342.93 529.982 0 529.982zM3995.816 712.337v-558.76H3825.55v557.56c0 179.859-278.18 179.859-278.18 0v-557.56h-171.465v558.76c0 407.678 619.91 407.678 619.91 0zM4499.269 1010.901V325.042H4712.7V154.776h-598.328v170.266h213.432v685.86h171.465zM5441.575 1010.901V153.577h-171.464v342.93h-256.598v-342.93h-171.465v857.324h171.465v-342.93h256.598v342.93h171.464zM6518.757 352.62l20.384-176.26c-51.56-22.783-109.114-33.574-169.067-33.574-580.342 0-581.541 870.513 0 870.513 59.953 0 135.493-14.388 188.252-35.971l-22.782-177.46c-32.375 16.786-91.128 38.37-165.47 38.37-339.332 0-339.332-522.788 0-522.788 74.342 0 116.308 20.384 148.683 37.17zM6617.754 1010.901H6812l33.573-92.327h284.176l34.773 92.327h193.047l-360.915-888.499h-17.986l-360.915 888.5zm290.171-253l80.337-223.024L7066.2 757.9h-158.275zM8097.799 1010.901l-199.043-353.72c251.801-73.143 221.825-503.604-83.934-503.604h-338.133v857.324h171.465V683.56h82.734l172.664 327.342h194.247zm-449.645-685.859h151.08c116.309 0 116.309 191.849 0 191.849h-151.08V325.042z" style="-inkscape-font-specification:'Lovelo Heavy'"/><path d="M8624.52 1022.892c589.935 0 589.935-883.703 0-883.703-589.934 0-589.934 883.703 0 883.703zm0-177.46c-342.929 0-342.929-529.982 0-529.982 342.93 0 342.93 529.982 0 529.982zM9228.432 153.577v857.324h443.65V839.436h-272.185V153.577h-171.465zM9990.056 1010.901V153.577h-171.464v857.324h171.464zM10355.393 544.469l434.057 484.418h45.564v-874.11h-172.663v484.417l-432.86-503.602h-45.563v875.31h171.465V544.468zM10950.273 1010.901h194.247l33.574-92.327h284.176l34.772 92.327h193.048l-360.915-888.499h-17.986l-360.916 888.5zm290.172-253l80.336-223.024 77.939 223.024h-158.275z" style="-inkscape-font-specification:'Lovelo Heavy'"/></g><g style="line-height:125%" font-size="940.185" fill="#115373"><path d="M1991.89 1822.718v-537.786h167.353v-133.506h-469.152v133.506h167.353v537.786h134.446zM2730.758 1822.718v-672.232h-134.446v268.893h-201.2v-268.893h-134.446v672.232h134.446v-268.893h201.2v268.893h134.446zM3229.203 1822.718v-134.446h-213.422v-134.447h176.755V1419.38H3015.78v-134.447h202.14v-134.446h-336.586v672.232h347.868zM3294.928 1822.718h152.31l26.325-72.394h222.824l27.265 72.394h151.37l-282.996-696.677h-14.102l-282.996 696.677zm227.525-198.379l62.992-174.874 61.112 174.874h-124.104zM4169.74 1822.718v-537.786h167.354v-133.506H3867.94v133.506h167.353v537.786h134.447zM4925.532 1822.718l-156.07-277.355c197.438-57.35 173.933-394.877-65.814-394.877h-265.132v672.232h134.447v-256.67h64.872l135.387 256.67h152.31zm-352.57-537.786h118.464c91.198 0 91.198 150.43 0 150.43h-118.463v-150.43zM5362.982 1822.718v-134.446H5149.56v-134.447h176.755V1419.38H5149.56v-134.447h202.14v-134.446h-336.586v672.232h347.868zM5694.97 1822.718h152.31l26.326-72.394h222.823l27.266 72.394h151.37l-282.996-696.677h-14.103l-282.996 696.677zm227.525-198.379l62.993-174.874 61.112 174.874h-124.105zM6337.44 1779.47c91.198 47.009 174.875 51.71 212.482 48.89 125.985-6.582 203.08-92.139 203.08-204.02 0-107.182-90.258-167.354-194.618-205.902-38.548-13.162-71.454-30.085-75.215-67.693-2.82-37.607 18.804-72.394 66.753-75.215 20.684-.94 62.992-1.88 137.267 28.206l16.923-129.746c-86.497-30.086-132.566-30.086-167.353-28.205-111.882 5.641-189.917 92.138-189.917 204.96s94.019 166.413 199.32 204.96c37.607 13.163 66.752 30.086 69.573 68.634 3.76 36.667-30.086 64.873-69.574 67.693-31.026 2.82-114.702.94-191.797-53.59l-16.924 141.028zM6835.077 1779.47c91.198 47.009 174.874 51.71 212.482 48.89 125.985-6.582 203.08-92.139 203.08-204.02 0-107.182-90.258-167.354-194.619-205.902-38.547-13.162-71.454-30.085-75.214-67.693-2.821-37.607 18.803-72.394 66.753-75.215 20.684-.94 62.992-1.88 137.267 28.206l16.923-129.746c-86.497-30.086-132.566-30.086-167.353-28.205-111.882 5.641-189.917 92.138-189.917 204.96s94.018 166.413 199.319 204.96c37.607 13.163 66.753 30.086 69.574 68.634 3.76 36.667-30.086 64.873-69.574 67.693-31.026 2.82-114.703.94-191.798-53.59l-16.923 141.028z" style="-inkscape-font-specification:'Lovelo Heavy'"/><path d="M7687.164 1832.12c462.57 0 462.57-692.916 0-692.916-462.571 0-462.571 692.916 0 692.916zm0-139.147c-268.893 0-268.893-415.562 0-415.562s268.893 415.562 0 415.562z" style="-inkscape-font-specification:'Lovelo Heavy'"/><path d="M8588.478 1306.556l15.983-138.207c-40.428-17.863-85.557-26.325-132.566-26.325-455.05 0-455.99 682.574 0 682.574 47.01 0 106.24-11.282 147.61-28.205l-17.864-139.148c-25.385 13.163-71.454 30.086-129.746 30.086-266.072 0-266.072-409.92 0-409.92 58.292 0 91.198 15.983 116.583 29.145zM8860.72 1822.718v-672.232h-134.446v672.232h134.446zM8952.564 1822.718h152.31l26.326-72.394h222.823l27.266 72.394h151.37l-282.996-696.677h-14.103l-282.996 696.677zm227.525-198.379l62.993-174.874 61.112 174.874h-124.105zM9827.378 1822.718v-537.786h167.353v-133.506h-469.153v133.506h167.353v537.786h134.447zM10230.599 1822.718v-672.232h-134.446v672.232h134.446zM10706.039 1832.12c462.57 0 462.57-692.916 0-692.916-462.571 0-462.571 692.916 0 692.916zm0-139.147c-268.893 0-268.893-415.562 0-415.562s268.893 415.562 0 415.562zM11314.016 1456.986l340.347 379.835h35.727v-685.395h-135.386v379.835l-339.407-394.878h-35.727v686.335h134.446v-365.732z" style="-inkscape-font-specification:'Lovelo Heavy'"/></g></g><path d="M308.017 152.054h789.11v1520.538h-789.11z" fill="#115373"/><path d="M-294.542-490.05h789.11v1520.538h-789.11z" transform="translate(602.559 642.103)" fill="#115373" filter="url(#a)"/><path style="line-height:125%;-inkscape-font-specification:'Trajan Pro'" d="M665.156 730.928c45.475 0 90.95-10.105 127.163-35.37 58.107-41.264 71.582-105.267 71.582-139.795 0-67.37-23.58-119.583-122.953-197.902l-23.58-18.527c-80.845-63.16-102.74-93.478-102.74-141.48 0-61.476 45.475-97.688 103.583-97.688 77.476 0 100.214 35.37 105.267 44.634 5.053 9.263 10.106 32 10.948 42.107.842 6.737 1.684 10.947 6.737 10.947 4.21 0 5.895-5.895 5.895-19.369 0-57.265 3.368-85.056 3.368-89.267 0-4.21-1.684-5.895-8.42-5.895-6.738 0-13.475-.842-29.476-4.21-21.053-5.053-45.475-8.422-78.319-8.422-106.951 0-174.322 61.477-174.322 151.585 0 57.266 20.21 109.478 109.478 182.745l37.896 31.159c72.424 59.792 96.846 93.477 96.846 151.585 0 53.897-39.58 112.004-120.426 112.004-56.423 0-112.005-23.58-124.637-85.898-2.526-11.79-2.526-23.58-2.526-31.16 0-6.736-.842-9.263-5.895-9.263-4.21 0-5.895 4.211-6.737 13.475-.842 13.474-4.21 47.16-4.21 89.266 0 22.738.841 26.107 12.631 32.002 34.528 16.842 73.266 22.737 112.847 22.737z" font-weight="400" font-size="842.139" font-family="Trajan Pro" letter-spacing="0" word-spacing="0"/><path style="line-height:125%;-inkscape-font-specification:'Trajan Pro'" d="M1206.167 926.127c41.143 0 90-4.5 115.716-14.786 11.571-5.143 12.857-6.429 16.714-18.643 6.429-21.858 14.143-77.787 14.143-82.287 0-5.143-1.286-9.643-4.5-9.643-3.857 0-5.143 2.571-6.429 9.643-1.928 11.571-10.285 39.857-23.786 54-25.714 26.358-63.643 32.144-111.858 32.144-137.573 0-232.075-112.502-232.075-235.289 0-65.572 10.929-122.787 57.858-167.788 22.5-21.857 62.358-46.93 147.86-46.93 56.571 0 106.072 17.358 128.572 36.644 16.715 14.143 27 40.5 27 65.572 0 9 .644 13.5 5.144 13.5 3.857 0 5.143-3.857 5.785-13.5.643-9.642.643-45 1.929-66.215 1.286-23.143 3.214-30.857 3.214-36 0-3.857-1.285-6.429-8.357-7.072-20.572-1.285-41.143-5.143-65.572-9.643-31.5-5.785-67.501-7.714-93.216-7.714-99.001 0-157.502 30.215-196.074 68.787-57.215 57.215-72 132.43-72 175.502 0 61.072 15.428 134.359 77.786 190.288 50.786 45.644 115.716 69.43 212.146 69.43z" font-weight="400" font-size="642.866" font-family="Trajan Pro" letter-spacing="0" word-spacing="0"/><path style="line-height:125%;-inkscape-font-specification:'Trajan Pro'" d="M742.875 1646.001c-17.593 48.87-37.14 86.01-82.1 91.874-7.82.978-21.503 1.955-28.344 1.955-4.887 0-8.797 1.955-8.797 5.864 0 5.865 5.865 7.82 18.57 7.82 45.938 0 99.694-2.933 110.445-2.933 10.751 0 52.779 2.932 76.236 2.932 8.796 0 14.66-1.954 14.66-7.819 0-3.91-2.932-5.864-9.773-5.864h-9.774c-16.616 0-37.14-8.796-37.14-28.344 0-17.593 4.886-41.05 13.683-65.485l58.643-172.996c1.954-4.887 4.887-7.82 9.773-7.82h210.138c4.887 0 6.841 1.955 8.796 5.865l90.897 240.436c5.864 15.638 0 24.434-5.864 26.39-3.91.977-6.842 2.931-6.842 6.841 0 5.864 10.751 5.864 29.321 6.842 67.44 1.954 138.789 1.954 153.45 1.954 10.75 0 19.547-1.954 19.547-7.819 0-4.887-3.91-5.864-9.774-5.864-9.774 0-24.434-.977-39.095-5.864-20.525-5.865-48.87-21.503-84.055-108.49-59.62-148.562-213.07-552.221-227.73-589.362-11.729-30.298-15.638-35.185-21.503-35.185-5.864 0-9.773 5.864-21.502 38.118L742.875 1646zM879.71 1430c-2.932 0-4.887-1.955-2.932-6.842l86.01-263.893c4.886-14.661 9.773-14.661 14.66 0l92.851 263.893c.978 3.91.978 6.842-3.91 6.842h-186.68z" font-weight="400" font-family="Trajan Pro" letter-spacing="0" word-spacing="0"/><path style="line-height:125%;-inkscape-font-specification:'Trajan Pro'" d="M512.756 837.927l176.523 2.802c134.493 2.802 168.117 35.024 172.32 77.053l1.4 15.411c1.402 19.614 4.203 23.817 11.208 23.817 5.604 0 9.807-5.604 9.807-18.213 0-15.41 4.203-112.078 4.203-154.107 0-8.406 0-16.812-7.005-16.812-5.604 0-18.212 4.203-39.227 7.005-22.416 4.203-54.638 7.005-99.47 7.005H217.152c-16.812 0-70.049-2.802-110.677-7.005-37.826-2.802-51.836-16.812-61.643-16.812-5.604 0-11.208 18.213-14.01 26.619C28.02 795.898 0 916.38 0 930.39 0 938.797 2.802 943 7.005 943c5.604 0 9.807-2.802 14.01-14.01 4.202-9.807 8.405-19.613 23.816-43.43 22.416-33.623 56.039-43.43 142.9-44.831l207.343-2.802v592.612c0 134.493 0 245.17-7.004 304.01-5.604 40.63-12.61 71.45-40.629 77.054-12.608 2.802-29.42 5.604-42.029 5.604-8.406 0-11.208 4.203-11.208 8.406 0 8.406 7.005 11.208 22.416 11.208 42.03 0 130.29-4.203 137.295-4.203 7.005 0 95.267 4.203 172.32 4.203 15.41 0 22.416-4.203 22.416-11.208 0-4.203-2.802-8.406-11.208-8.406-12.609 0-43.43-2.802-63.044-5.604-42.03-5.604-50.435-36.425-54.638-77.053-7.005-58.841-7.005-169.518-7.005-304.011V837.927z" font-weight="400" font-family="Trajan Pro" letter-spacing="0" word-spacing="0"/><path clip-path="url(#b)" d="M-294.542-490.05h789.11v1520.538h-789.11z" transform="translate(602.559 642.103)" fill="#fff"/><path clip-path="url(#c)" d="M140.317 1003.898c-17.593 48.869-37.141 86.01-82.1 91.874-7.82.977-21.503 1.955-28.345 1.955-4.887 0-8.796 1.954-8.796 5.864 0 5.864 5.864 7.819 18.57 7.819 45.937 0 99.693-2.932 110.444-2.932 10.752 0 52.78 2.932 76.236 2.932 8.797 0 14.661-1.955 14.661-7.82 0-3.909-2.932-5.863-9.774-5.863h-9.774c-16.615 0-37.14-8.797-37.14-28.345 0-17.592 4.887-41.05 13.683-65.484L256.625 830.9c1.955-4.887 4.887-7.819 9.774-7.819h210.137c4.887 0 6.842 1.955 8.797 5.864l90.896 240.436c5.865 15.639 0 24.435-5.864 26.39-3.91.977-6.842 2.932-6.842 6.842 0 5.864 10.752 5.864 29.322 6.841 67.44 1.955 138.788 1.955 153.449 1.955 10.751 0 19.548-1.955 19.548-7.82 0-4.886-3.91-5.863-9.774-5.863-9.774 0-24.435-.978-39.096-5.865-20.525-5.864-48.869-21.502-84.054-108.49-59.62-148.561-213.07-552.22-227.73-589.361-11.73-30.299-15.639-35.186-21.503-35.186-5.864 0-9.774 5.864-21.503 38.118l-221.865 606.955zM277.15 787.896c-2.932 0-4.887-1.955-2.932-6.841l86.01-263.894c4.887-14.66 9.774-14.66 14.66 0l92.852 263.894c.977 3.91.977 6.841-3.91 6.841H277.15z" style="line-height:125%;-inkscape-font-specification:'Trajan Pro'" transform="translate(602.559 642.103)" font-weight="400" font-family="Trajan Pro" letter-spacing="0" word-spacing="0" fill="#fff"/></svg>