<?xml version="1.0" encoding="UTF-8" standalone="no"?>
<!-- Created with Inkscape (http://www.inkscape.org/) -->

<svg
   xmlns:dc="http://purl.org/dc/elements/1.1/"
   xmlns:cc="http://creativecommons.org/ns#"
   xmlns:rdf="http://www.w3.org/1999/02/22-rdf-syntax-ns#"
   xmlns:svg="http://www.w3.org/2000/svg"
   xmlns="http://www.w3.org/2000/svg"
   xmlns:sodipodi="http://sodipodi.sourceforge.net/DTD/sodipodi-0.dtd"
   xmlns:inkscape="http://www.inkscape.org/namespaces/inkscape"
   width="105.87004mm"
   height="105.87004mm"
   viewBox="0 0 375.13004 375.13005"
   id="svg2"
   version="1.1"
   inkscape:version="0.91 r13725"
   sodipodi:docname="pdf.svg">
  <defs
     id="defs4" />
  <sodipodi:namedview
     id="base"
     pagecolor="#ffffff"
     bordercolor="#666666"
     borderopacity="1.0"
     inkscape:pageopacity="0.0"
     inkscape:pageshadow="2"
     inkscape:zoom="0.98994949"
     inkscape:cx="92.73094"
     inkscape:cy="186.10447"
     inkscape:document-units="px"
     inkscape:current-layer="layer2"
     showgrid="false"
     fit-margin-top="0"
     fit-margin-left="0"
     fit-margin-right="0"
     fit-margin-bottom="0"
     inkscape:window-width="1920"
     inkscape:window-height="1017"
     inkscape:window-x="0"
     inkscape:window-y="30"
     inkscape:window-maximized="1" />
  <metadata
     id="metadata7">
    <rdf:RDF>
      <cc:Work
         rdf:about="">
        <dc:format>image/svg+xml</dc:format>
        <dc:type
           rdf:resource="http://purl.org/dc/dcmitype/StillImage" />
        <dc:title></dc:title>
      </cc:Work>
    </rdf:RDF>
  </metadata>
  <g
     inkscape:label="Layer 1"
     inkscape:groupmode="layer"
     id="layer1"
     transform="translate(85.0005,-762.23267)" />
  <g
     inkscape:groupmode="layer"
     id="layer2"
     inkscape:label="Layer 2"
     transform="translate(85.0005,-762.23267)">
    <rect
       style="fill:#505050;fill-opacity:1;stroke:#505050;stroke-width:49.99999237;stroke-linecap:butt;stroke-linejoin:round;stroke-miterlimit:4;stroke-dasharray:none;stroke-opacity:1"
       id="rect4136"
       width="260.12952"
       height="260.12952"
       x="5.000001"
       y="787.23267" />
    <g
       transform="matrix(0.87256103,0,0,1.5022702,-8.3771409,-214.89452)"
       style="font-style:normal;font-weight:normal;font-size:28.09164619px;line-height:125%;font-family:sans-serif;letter-spacing:0px;word-spacing:0px;fill:#000000;fill-opacity:1;stroke:none;stroke-width:1px;stroke-linecap:butt;stroke-linejoin:miter;stroke-opacity:1"
       id="text4138">
      <path
         d="m 14.87668,700.99391 45.076752,0 q 20.104655,0 30.827138,8.95892 10.79302,8.88837 10.79302,25.39535 0,16.57752 -10.79302,25.53644 -10.722483,8.88838 -30.827138,8.88838 l -17.917832,0 0,36.54109 -27.15892,0 0,-105.32018 z m 27.15892,19.6814 0,29.41629 15.025584,0 q 7.900776,0 12.203878,-3.80931 4.303101,-3.87984 4.303101,-10.93411 0,-7.05426 -4.303101,-10.86357 -4.303102,-3.8093 -12.203878,-3.8093 l -15.025584,0 z"
         style="font-style:normal;font-variant:normal;font-weight:bold;font-stretch:normal;font-size:144.47134399px;font-family:'DejaVu Sans';-inkscape-font-specification:'DejaVu Sans Bold';fill:#ffffff;fill-opacity:1"
         id="path4184"
         inkscape:connector-curvature="0" />
      <path
         d="m 147.84957,721.52182 0,64.26436 9.73489,0 q 16.64806,0 25.39535,-8.25349 8.81783,-8.25349 8.81783,-23.9845 0,-15.66047 -8.74729,-23.84342 -8.74728,-8.18295 -25.46589,-8.18295 l -9.73489,0 z m -27.15892,-20.52791 28.64032,0 q 23.9845,0 35.69458,3.45659 11.78062,3.38605 20.1752,11.569 7.40697,7.1248 11.00465,16.43643 3.59767,9.31163 3.59767,21.09226 0,11.9217 -3.59767,21.30388 -3.59768,9.31163 -11.00465,16.43643 -8.46512,8.18295 -20.31629,11.63954 -11.85116,3.38605 -35.55349,3.38605 l -28.64032,0 0,-105.32018 z"
         style="font-style:normal;font-variant:normal;font-weight:bold;font-stretch:normal;font-size:144.47134399px;font-family:'DejaVu Sans';-inkscape-font-specification:'DejaVu Sans Bold';fill:#ffffff;fill-opacity:1"
         id="path4186"
         inkscape:connector-curvature="0" />
      <path
         d="m 240.61316,700.99391 73.29381,0 0,20.52791 -46.13489,0 0,19.61086 43.38373,0 0,20.52791 -43.38373,0 0,44.6535 -27.15892,0 0,-105.32018 z"
         style="font-style:normal;font-variant:normal;font-weight:bold;font-stretch:normal;font-size:144.47134399px;font-family:'DejaVu Sans';-inkscape-font-specification:'DejaVu Sans Bold';fill:#ffffff;fill-opacity:1"
         id="path4188"
         inkscape:connector-curvature="0" />
    </g>
    <path
       style="fill:none;fill-rule:evenodd;stroke:#505050;stroke-width:40;stroke-linecap:round;stroke-linejoin:round;stroke-miterlimit:4;stroke-dasharray:none;stroke-opacity:1"
       d="m -64.9985,850.20379 0,267.15691 267.15694,0"
       id="path4154"
       inkscape:connector-curvature="0" />
  </g>
</svg>
