<svg xmlns="http://www.w3.org/2000/svg" width="545mm" height="545mm" viewBox="0 0 1931.102 1931.102"><defs><clipPath id="b"><path style="line-height:125%;-inkscape-font-specification:'Trajan Pro'" d="M-89.802 195.823l176.522 2.802c134.494 2.802 168.117 35.025 172.32 77.054l1.401 15.41c1.401 19.614 4.203 23.817 11.208 23.817 5.604 0 9.807-5.604 9.807-18.213 0-15.41 4.203-112.077 4.203-154.107 0-8.405 0-16.811-7.005-16.811-5.604 0-18.213 4.203-39.228 7.005-22.415 4.203-54.638 7.004-99.469 7.004h-525.365c-16.811 0-70.048-2.801-110.677-7.004-37.826-2.802-51.836-16.812-61.642-16.812-5.604 0-11.208 18.213-14.01 26.618-2.802 11.208-30.822 131.692-30.822 145.702 0 8.406 2.802 12.608 7.005 12.608 5.604 0 9.807-2.802 14.01-14.01 4.203-9.806 8.406-19.613 23.817-43.43 22.415-33.623 56.039-43.43 142.899-44.83l207.344-2.803v592.612c0 134.494 0 245.17-7.005 304.011-5.604 40.629-12.609 71.45-40.628 77.054-12.609 2.802-29.42 5.604-42.03 5.604-8.405 0-11.207 4.203-11.207 8.406 0 8.406 7.005 11.207 22.415 11.207 42.03 0 130.29-4.203 137.296-4.203 7.005 0 95.266 4.203 172.32 4.203 15.41 0 22.415-4.203 22.415-11.207 0-4.203-2.802-8.406-11.208-8.406-12.608 0-43.43-2.802-63.043-5.604-42.03-5.604-50.436-36.425-54.638-77.054-7.005-58.84-7.005-169.517-7.005-304.01V195.822z" font-weight="400" font-family="Trajan Pro" letter-spacing="0" word-spacing="0" fill="#fff"/></clipPath><clipPath id="c"><path d="M-294.542-490.05h789.11v1520.538h-789.11z" fill="#fff" stroke-width="5.891"/></clipPath><filter id="a" y="-.1" height="1.2" width="1.71" x="-.39" color-interpolation-filters="sRGB"><feFlood flood-opacity="1" flood-color="#5E5E5E" result="flood"/><feComposite in="flood" in2="SourceGraphic" operator="in" result="composite1"/><feGaussianBlur in="composite1" stdDeviation="65" result="blur"/><feOffset result="offset"/><feComposite in="SourceGraphic" in2="offset" result="composite2"/></filter></defs><g fill="#115373"><path d="M570.996 152.073h789.11V1672.61h-789.11z"/><path transform="translate(865.538 642.122)" d="M-294.542-490.05h789.11v1520.538h-789.11z" filter="url(#a)"/></g><g font-weight="400" font-family="Trajan Pro" letter-spacing="0" word-spacing="0"><path d="M928.135 730.947c45.476 0 90.951-10.106 127.163-35.37 58.108-41.265 71.582-105.267 71.582-139.795 0-67.37-23.58-119.584-122.952-197.902l-23.58-18.527c-80.845-63.16-102.74-93.478-102.74-141.48 0-61.476 45.475-97.688 103.582-97.688 77.477 0 100.215 35.37 105.267 44.633 5.053 9.264 10.106 32.002 10.948 42.107.842 6.738 1.685 10.948 6.737 10.948 4.211 0 5.895-5.895 5.895-19.369 0-57.265 3.369-85.056 3.369-89.267 0-4.21-1.684-5.895-8.421-5.895-6.738 0-13.475-.842-29.475-4.21-21.054-5.053-45.476-8.422-78.32-8.422-106.95 0-174.322 61.476-174.322 151.585 0 57.266 20.211 109.478 109.478 182.744l37.896 31.16c72.424 59.791 96.846 93.477 96.846 151.584 0 53.897-39.58 112.005-120.426 112.005-56.423 0-112.004-23.58-124.636-85.898-2.527-11.79-2.527-23.58-2.527-31.16 0-6.736-.842-9.263-5.894-9.263-4.211 0-5.895 4.21-6.738 13.474-.842 13.475-4.21 47.16-4.21 89.267 0 22.738.842 26.106 12.632 32.001 34.527 16.843 73.266 22.738 112.846 22.738z" style="line-height:125%;-inkscape-font-specification:'Trajan Pro'" font-size="842.139"/><path d="M1469.146 926.145c41.144 0 90.001-4.5 115.716-14.786 11.572-5.142 12.857-6.428 16.715-18.643 6.428-21.857 14.143-77.786 14.143-82.286 0-5.143-1.286-9.643-4.5-9.643-3.858 0-5.143 2.571-6.43 9.643-1.928 11.571-10.285 39.857-23.785 54-25.715 26.358-63.644 32.144-111.859 32.144-137.573 0-232.074-112.502-232.074-235.29 0-65.572 10.928-122.787 57.858-167.787 22.5-21.858 62.358-46.93 147.859-46.93 56.572 0 106.073 17.358 128.573 36.644 16.714 14.143 27 40.5 27 65.572 0 9 .643 13.5 5.143 13.5 3.857 0 5.143-3.857 5.786-13.5.643-9.643.643-45 1.929-66.215 1.285-23.143 3.214-30.857 3.214-36 0-3.857-1.286-6.429-8.357-7.072-20.572-1.286-41.144-5.143-65.573-9.643-31.5-5.786-67.5-7.714-93.215-7.714-99.001 0-157.502 30.214-196.074 68.786-57.215 57.215-72.001 132.43-72.001 175.503 0 61.072 15.429 134.359 77.787 190.288 50.786 45.643 115.715 69.43 212.145 69.43z" style="line-height:125%;-inkscape-font-specification:'Trajan Pro'" font-size="642.866"/><path d="M1005.855 1646.02c-17.593 48.87-37.141 86.01-82.1 91.874-7.82.977-21.503 1.955-28.345 1.955-4.887 0-8.796 1.955-8.796 5.864 0 5.864 5.864 7.82 18.57 7.82 45.937 0 99.693-2.933 110.444-2.933 10.752 0 52.78 2.932 76.236 2.932 8.797 0 14.661-1.955 14.661-7.819 0-3.91-2.932-5.864-9.774-5.864h-9.774c-16.615 0-37.14-8.797-37.14-28.344 0-17.593 4.887-41.05 13.683-65.485l58.643-172.997c1.955-4.887 4.887-7.819 9.774-7.819h210.137c4.887 0 6.842 1.955 8.797 5.865l90.896 240.436c5.865 15.638 0 24.434-5.864 26.39-3.91.976-6.842 2.931-6.842 6.84 0 5.865 10.752 5.865 29.322 6.842 67.44 1.955 138.788 1.955 153.449 1.955 10.751 0 19.548-1.955 19.548-7.819 0-4.887-3.91-5.864-9.774-5.864-9.774 0-24.435-.978-39.096-5.864-20.525-5.865-48.869-21.503-84.054-108.49-59.62-148.562-213.07-552.221-227.73-589.362-11.73-30.299-15.639-35.186-21.503-35.186-5.864 0-9.774 5.865-21.503 38.118l-221.865 606.955zm136.833-216.001c-2.932 0-4.887-1.955-2.932-6.842l86.01-263.894c4.887-14.66 9.774-14.66 14.66 0l92.852 263.894c.977 3.91.977 6.842-3.91 6.842h-186.68z" style="line-height:125%;-inkscape-font-specification:'Trajan Pro'"/><path d="M775.736 837.946l176.522 2.802c134.494 2.802 168.117 35.024 172.32 77.053l1.401 15.41c1.401 19.615 4.203 23.817 11.208 23.817 5.604 0 9.807-5.603 9.807-18.212 0-15.41 4.203-112.078 4.203-154.107 0-8.406 0-16.812-7.005-16.812-5.604 0-18.213 4.203-39.228 7.005-22.415 4.203-54.638 7.005-99.469 7.005H480.13c-16.811 0-70.048-2.802-110.677-7.005-37.826-2.802-51.836-16.812-61.642-16.812-5.604 0-11.208 18.213-14.01 26.619-2.802 11.208-30.822 131.691-30.822 145.7 0 8.407 2.802 12.61 7.005 12.61 5.604 0 9.807-2.802 14.01-14.01 4.203-9.807 8.406-19.614 23.817-43.43 22.415-33.624 56.039-43.43 142.899-44.831l207.344-2.802v592.611c0 134.494 0 245.17-7.005 304.012-5.604 40.628-12.609 71.45-40.628 77.053-12.609 2.802-29.42 5.604-42.03 5.604-8.405 0-11.207 4.203-11.207 8.406 0 8.406 7.005 11.208 22.415 11.208 42.03 0 130.29-4.203 137.296-4.203 7.005 0 95.266 4.203 172.32 4.203 15.41 0 22.415-4.203 22.415-11.208 0-4.203-2.802-8.406-11.208-8.406-12.608 0-43.43-2.802-63.043-5.604-42.03-5.604-50.436-36.425-54.638-77.053-7.005-58.841-7.005-169.518-7.005-304.012V837.946z" style="line-height:125%;-inkscape-font-specification:'Trajan Pro'"/></g><path transform="translate(865.538 642.122)" d="M-294.542-490.05h789.11v1520.538h-789.11z" clip-path="url(#b)" fill="#fff"/><path transform="translate(865.538 642.122)" style="line-height:125%;-inkscape-font-specification:'Trajan Pro'" d="M140.317 1003.898c-17.593 48.869-37.141 86.01-82.1 91.874-7.82.977-21.503 1.955-28.345 1.955-4.887 0-8.796 1.954-8.796 5.864 0 5.864 5.864 7.819 18.57 7.819 45.937 0 99.693-2.932 110.444-2.932 10.752 0 52.78 2.932 76.236 2.932 8.797 0 14.661-1.955 14.661-7.82 0-3.909-2.932-5.863-9.774-5.863h-9.774c-16.615 0-37.14-8.797-37.14-28.345 0-17.592 4.887-41.05 13.683-65.484L256.625 830.9c1.955-4.887 4.887-7.819 9.774-7.819h210.137c4.887 0 6.842 1.955 8.797 5.864l90.896 240.436c5.865 15.639 0 24.435-5.864 26.39-3.91.977-6.842 2.932-6.842 6.842 0 5.864 10.752 5.864 29.322 6.841 67.44 1.955 138.788 1.955 153.449 1.955 10.751 0 19.548-1.955 19.548-7.82 0-4.886-3.91-5.863-9.774-5.863-9.774 0-24.435-.978-39.096-5.865-20.525-5.864-48.869-21.502-84.054-108.49-59.62-148.561-213.07-552.22-227.73-589.361-11.73-30.299-15.639-35.186-21.503-35.186-5.864 0-9.774 5.864-21.503 38.118l-221.865 606.955zM277.15 787.896c-2.932 0-4.887-1.955-2.932-6.841l86.01-263.894c4.887-14.66 9.774-14.66 14.66 0l92.852 263.894c.977 3.91.977 6.841-3.91 6.841H277.15z" clip-path="url(#c)" font-weight="400" font-family="Trajan Pro" letter-spacing="0" word-spacing="0" fill="#fff"/></svg>
